<?xml version="1.0" encoding="utf-8"?>
<!-- Generator: Adobe Illustrator 23.0.1, SVG Export Plug-In . SVG Version: 6.00 Build 0)  -->
<svg version="1.1" id="Layer_3" xmlns="http://www.w3.org/2000/svg" xmlns:xlink="http://www.w3.org/1999/xlink" x="0px" y="0px"
	 viewBox="0 0 120 146" style="enable-background:new 0 0 120 146;" xml:space="preserve">
<style type="text/css">
	.st0{fill:#FFFFFF;}
</style>
<polygon class="st0" points="109.9,127.7 102.2,127.7 102,146 109.7,146 "/>
<polygon class="st0" points="62.5,30.6 70.8,29.9 70.4,0 62.9,0 "/>
<polygon class="st0" points="63.1,131.1 62.9,146 70.4,146 70.2,131.1 "/>
<polygon class="st0" points="20.6,30.6 29,30.6 29,0 20.2,0 "/>
<polygon class="st0" points="20,131.1 20.2,146 29,146 29,131.7 "/>
<polygon class="st0" points="102,0 101.7,26.5 109.5,26.5 109.7,0 "/>
<polygon class="st0" points="0,21.7 9,21.1 10.3,67.9 0.6,69.3 "/>
<polygon class="st0" points="20.6,57.7 20.6,101.2 29,101.2 28.3,57.7 "/>
<polygon class="st0" points="1.3,94.4 9,94.4 9,145.3 0.6,144.6 "/>
<polygon class="st0" points="39.3,68.6 39.9,21.7 47,21.7 48.3,69.3 "/>
<polygon class="st0" points="40.6,92.4 48.3,92.4 50.2,141.9 41.2,141.9 "/>
<polygon class="st0" points="60.5,53.6 68.9,53 69.5,97.8 61.2,97.8 "/>
<polygon class="st0" points="79.8,60.4 79.8,20.4 87.6,20.4 87.6,59.8 "/>
<polygon class="st0" points="79.2,92.4 88.2,91.7 88.2,138.5 79.8,137.9 "/>
<polygon class="st0" points="101.7,49.6 109.5,49.6 108.8,96.4 101.1,96.4 "/>
</svg>
